<svg xmlns="http://www.w3.org/2000/svg" viewBox="0 0 63.21 151.09"><g id="Layer_2" data-name="Layer 2"><g id="Layer_1-2" data-name="Layer 1"><path d="M37.18,145.67h0c1.18.11,2.4.65,3.55.34a17.72,17.72,0,0,0,4.63-2.57c.28-.18.71-.47.61-.79a2.77,2.77,0,0,0-1.27-1.35,1.34,1.34,0,0,0-1-.12c-.7.16-1.28.71-2,.82-1.16.19-2.85,1.05-3.52.09a41,41,0,0,1-5.85-13.45,3.13,3.13,0,0,1,1.59-3.19c.7-.34,1,1.35,1.73,1.55a7.44,7.44,0,0,0,4.08,0A85.27,85.27,0,0,0,50.4,122.4a1.32,1.32,0,0,0,.62-.73,1.24,1.24,0,0,0,0-1c-.89-1.22-2.18-2.1-3.13-3.28-1.36-1.7-2.34-3.7-3.79-5.32-1.24-1.4-3-2.28-4.21-3.68A40.73,40.73,0,0,1,34,100.42c-1.4-2.73-2.65-5.76-2.65-8.83A26.39,26.39,0,0,1,34,80.88c.79-1.73,2.53-2.86,4-4a55.1,55.1,0,0,1,9.31-6.25c2.59-1.26,5.5-1.71,8.31-2.33a4.91,4.91,0,0,1,2.09,0c.38.08.62.81,1,.65s.46-.84.46-1.3,0-1.26-.44-1.34a22.48,22.48,0,0,0-7.09,0,19.15,19.15,0,0,0-4.88,1.66A36.86,36.86,0,0,0,41,70.86c-1,.67-1.67,1.81-2.62,2.57-1.17.94-2.21,2.46-3.7,2.52-.79,0-.56-1.59-.36-2.35.28-1.09,1.28-1.86,1.72-2.89a1.94,1.94,0,0,0,0-1.12c-.87-4.83-4.55-9.86-2.8-14.44,1.33-3.47,6.89-2.85,10.12-4.71,1-.56,1.23-2.16,2.32-2.46.64-.17.8,1.08,1.33,1.48,1.27.95,3,1.35,4,2.55.33.38-.86,1-.57,1.42A9.4,9.4,0,0,0,53.68,56c.16.1.33-.17.47-.3.31-.3.82-.54.87-1,.07-.62-.91-1.28-.54-1.78.72-1,2.27-.92,3.16-1.72a9.09,9.09,0,0,0,1.85-2.81,29.14,29.14,0,0,0,1.79-4.54A61.67,61.67,0,0,0,63,36.71a11.6,11.6,0,0,0,.12-3.06,3.24,3.24,0,0,0-.48-1.48C62,31,60.64,30.27,60.2,29c-1-2.93-.9-6.17-1.82-9.14A8.79,8.79,0,0,0,56.46,17c-.35-.4-1-.43-1.33-.86-1.47-2-2.32-4.49-3.93-6.42-.92-1.1-2.48-1.49-3.5-2.51-1.59-1.59-2.35-4-4.26-5.23S39,.62,36.74.28A15.36,15.36,0,0,0,31.68.16C30.25.44,29.16,1.74,27.73,2c-.7.13-1.32-.61-2-.71a5.74,5.74,0,0,0-3.05,0,5.82,5.82,0,0,0-2.32,2.32c-.28.42.23,1.23-.2,1.5-1.64,1-3.69,1.15-5.42,2-.55.26-.78,1-1.31,1.28C12.32,9,11,9.29,10,9.9a2.23,2.23,0,0,0-1,1,38.68,38.68,0,0,0-1.64,5.7c-.2.88.24,1.93-.24,2.69-.66,1.07-2,1.5-2.92,2.4a3.31,3.31,0,0,0-.9,1.51C2.05,28.3.92,33.45.18,38.65a12.9,12.9,0,0,0,.14,5c.22.83,1.49,1.11,1.7,1.94s-.58,1.31-.7,2a4.91,4.91,0,0,0,0,2.09,13.77,13.77,0,0,0,1.62,3.66A4.8,4.8,0,0,0,4.65,55c.49.27,1.31-.18,1.67.26,1.54,1.85,2,4.45,3.69,6.2A7.74,7.74,0,0,0,14.62,64c2,.17,3.93-.9,5.8-1.63a2.6,2.6,0,0,0,1-1c.59-.83,1.44-1.62,1.57-2.63s-.74-2-.82-3.06c0-.46,0-1.11.46-1.3s.59.6,1,.65c1.89.26,4.38-1.09,5.71.28,2,2.08,2.25,5.43,2.68,8.31a38,38,0,0,1,.12,10,9.69,9.69,0,0,1-1.74,4.21c-.17.25-.42-.49-.72-.55a4,4,0,0,0-2.08,0c-1.06.36-1.79,1.5-2.89,1.72a17.81,17.81,0,0,1-6.05.13,19.53,19.53,0,0,1-4.76-1.67,14.94,14.94,0,0,1-3.93-2c-1.34-1.15-1.91-3-3.29-4.13-.4-.32-1,.09-1.5.34a1.66,1.66,0,0,0-.87,1,2,2,0,0,0,.34,1.51A21.15,21.15,0,0,0,8,77.43a13.62,13.62,0,0,0,3,2A28.64,28.64,0,0,0,17.62,82a21.21,21.21,0,0,0,7.11,0c1.4-.22,2.55-1.27,3.89-1.73a1.35,1.35,0,0,1,1.08,0A3.39,3.39,0,0,1,31,81.62a1.57,1.57,0,0,1,0,1.09c-.49,2-1.28,3.89-1.73,5.88-.19.83.44,2-.19,2.54-1.34,1.23-3.42,1.28-5,2.21A11.46,11.46,0,0,0,20.89,96c-1.05,1.29-1.5,3-2.43,4.36-.41.63-1.15,1-1.57,1.63C13.3,107.35,10.15,113,6.46,118.34a16.15,16.15,0,0,1-3.09,3.09c-.82.68-1.95.94-2.67,1.71a1.47,1.47,0,0,0-.37,1.53,3.39,3.39,0,0,0,2,1.46c3,.87,6.19.83,9.14,1.81.73.25,1.74,1,1.54,1.74-.58,2.15-2.13,3.94-3.54,5.66-2.15,2.63-6.7,3.94-7.08,7.31-.3,2.67,3.61,4,5.61,5.78A14,14,0,0,0,11.65,151a1.14,1.14,0,0,0,1.37-.31,2.67,2.67,0,0,0,.08-2.58c-.77-1-2.38-1.1-3.39-1.92-1.26-1-3.27-1.91-3.33-3.53,0-1.29,2.27-1.34,3.1-2.33,2.17-2.6,3.39-5.94,5.78-8.33,1.36-1.35,3.48-1.63,5.14-2.59.48-.28.71-1,1.25-1.1a5.14,5.14,0,0,1,3.08,0c1.48.57,2.52,2,3.92,2.71.45.24,1.29-.25,1.52.21,2.37,4.77,3.63,10,5.95,14.82m.26-22.19h0a21.32,21.32,0,0,0-2.65-1.55c-.48-.2-1.24.22-1.55-.2a9.41,9.41,0,0,1-1.87-4.38c-.39-3.07-2.63-7.92.15-9.27,2.48-1.2,1.9,5.21,3.2,7.64s3.16,4.21,4.36,6.54a1.2,1.2,0,0,1-.31,1.36m-19.82,0h0c-.72.73-1.24,1.73-2.16,2.17-.44.21-1.56,0-1.38-.49,1.74-4.27,3.57-8.66,6.54-12.19.92-1.08.54,2.9.15,4.26m-10.86,6.92h0a7,7,0,0,1-1.5.51,3.87,3.87,0,0,1-2-.13,3.57,3.57,0,0,1-1.34-1.36.54.54,0,0,1,0-.62c.63-.67,1.56-1,2.17-1.7s1-1.83,1.67-2.64,1.71-1.43,2.31-2.35c1.33-2,2.16-4.32,3.43-6.37s1.71-5.39,4-5.53c1.76-.1.45,3.54.18,5.28a12.43,12.43,0,0,1-1.55,3.67c-1.58,3-3.16,6.08-5,9m28.75.33h0c-.77-1.11-1.66-2.15-2.32-3.32-1.46-2.59-2.75-5.26-4-7.93a16.13,16.13,0,0,1-1.55-3.7c-.15-.78-.39-2.1.36-2.36s1.29,1,1.79,1.61.82,1.69,1.43,2.38c2.07,2.32,4.49,4.31,6.57,6.62,1.26,1.4,3.88,2.66,3.43,4.49S43.5,122.28,41.7,123m-14.52-6.37h0a21,21,0,0,0,.14,3.07c.14.7.77,1.26.84,2,.16,1.67,1.4,4.39-.15,5-2.14.88-5.19-.4-6.58-2.26-.9-1.2,1.45-2.68,1.78-4.14,1.25-5.52,1.79-11.18,2.93-16.73.09-.43.29-1.12.73-1.1s.88.7,1.16,1.18a1.52,1.52,0,0,1,.11,1,28.13,28.13,0,0,0-.95,3m4.81-4h0c-.22,0-.6.25-.66,0-.11-.44-.12-1.31.33-1.33M23,101.63h0a5.56,5.56,0,0,1-1.36.35c-.16,0-.37-.21-.31-.35.38-.8.63-2.2,1.51-2.19m.49-1.78h0c.27,0,.57-.15.79,0,.38.23,1,.61.84,1a1,1,0,0,1-1.33.33M16,58.65h0a7.13,7.13,0,0,1-.85-2c-.07-.78-.2-1.92.48-2.3s1,.75,1.36,1.27a2,2,0,0,1,.13,1,11.27,11.27,0,0,1-.15,3c-.06.22-.52.17-.68,0m-2-8h0a27.24,27.24,0,0,1-2.62-2.53c-.17-.22-.31-.73,0-.84a3.13,3.13,0,0,1,2,0,1.54,1.54,0,0,1,1,.87,5.09,5.09,0,0,1,.33,2.5m18.47-.14h0C31.55,52,29.67,53,27.68,53c-1.74,0-3.34-1-4.95-1.64A16.32,16.32,0,0,1,19,49.44a14.6,14.6,0,0,1-4.07-4.07,46.18,46.18,0,0,1-3.61-9.66,2.33,2.33,0,0,1,.36-1.54c.5-1,1.32-1.81,1.82-2.8,1.36-2.73,2.13-5.77,3.76-8.35.75-1.18,2.27-1.65,3.21-2.68.66-.72.86-1.81,1.55-2.5,1.07-1.07,2.55-1.66,3.66-2.69.86-.8,1.18-2.17,2.2-2.76.45-.25.88.6,1.39.71,5.25,1.16,10.68,1.55,15.83,3.1.52.15-.65.9-.77,1.42s-.39,1.49,0,2.06c1,1.37,2.58,2.14,3.75,3.34.14.14.09.39.09.58A92.11,92.11,0,0,1,48,33.71a22.41,22.41,0,0,1-1.65,5.7,30.94,30.94,0,0,1-3,6,15.56,15.56,0,0,1-3.06,3.06,13,13,0,0,1-2.95,2m17.43-3.52h0c-.38.38-.64,1-1.15,1.14a3.29,3.29,0,0,1-2.08,0c-1.83-.64-4-1-5.2-2.56-.55-.72,1-1.55,1.63-2.17.15-.16.46-.11.65,0M28.94,44.87h0a17.15,17.15,0,0,0,3.71-1.71c.41-.33.34-1,.36-1.54a.34.34,0,0,0-.31-.31,19.33,19.33,0,0,0-4-.15c-.71.08-1.39,1.16-2,.79-1.81-1.11-2.56-3.53-4.36-4.67-.53-.33-1.18.47-1.63.89a.76.76,0,0,0-.18.77,8.46,8.46,0,0,0,1.39,2.4,22.45,22.45,0,0,0,3.3,3.31,2.62,2.62,0,0,0,1.49.48m-18-1h0A17.74,17.74,0,0,1,4.65,44a2,2,0,0,1-1.33-1.32,12.37,12.37,0,0,1-.13-4c0-.46,0-1.37.48-1.3.85.12,1.18,1.33,2,1.65s1.89-.2,2.66.25A5.64,5.64,0,0,1,10,41.6a1.78,1.78,0,0,1,.1,1A2.32,2.32,0,0,1,9.7,44m43.69-1.32h0a5.42,5.42,0,0,1,1.31-.36c.14,0,.4.25.28.33a2.68,2.68,0,0,1-1.33.33m-2.3-1.28h0c.1-.47-.1-1.13.29-1.39a1.12,1.12,0,0,1,1.37.31A1.1,1.1,0,0,1,52.7,42M12.31,57.65h0c.24.32.65.57.71,1s0,1.6-.34,1.33a6.23,6.23,0,0,1-2.33-3.28c-.12-.45.94-.56,1.35-.36M52.89,32.88h0a4.19,4.19,0,0,1-1.2.24c-.46,0-1.21,0-1.32-.46s.39-1.19.85-1.55a11.3,11.3,0,0,1,3.4-1.83,3.16,3.16,0,0,1,2.08,0A2.32,2.32,0,0,1,58,30.65c.1.29-.27.6-.55.73M37.13,29.67h0a9.65,9.65,0,0,0,1.9-2,2.93,2.93,0,0,0,.13-2,12.56,12.56,0,0,0-1.7-3.7c-.27-.4-1-1.12-1.28-.71a16.06,16.06,0,0,0-2.77,7.21c-.06.9,1.36,1.27,2.21,1.55m-7.43-2.32h0A8.28,8.28,0,0,0,28,25.63a2,2,0,0,0-.87-1,3,3,0,0,0-1.48-.47c-.48,0-1.21,0-1.35.44a7.74,7.74,0,0,0,0,4.08,6.66,6.66,0,0,0,1.86,2.93A1.62,1.62,0,0,0,27.7,32,1.86,1.86,0,0,0,29,30.68m-23.66-3h0c.1-.45-.15-1.33.31-1.35s.44.89.33,1.33m46.67-1.34h0c0,.21.25.6,0,.65-.45.11-1.31.13-1.34-.33m4.65-4h0a12.06,12.06,0,0,1-2.35.52c-.78,0-2.54.25-2.29-.49.42-1.27,2-1.83,3.24-2.37a1.22,1.22,0,0,1,1.4.33m-42.66-.93h0a5.14,5.14,0,0,1,.31-1.52c.21-.37.6-1,1-.82s.5.9.34,1.33A3,3,0,0,1,13.67,20m38-1.62h0c0,.21.25.6,0,.65-.45.11-1.31.13-1.34-.33m-9-6h0c.1-.45-.15-1.33.31-1.35s.44.89.33,1.33m-5.33-2.36h0c0,.23.21.54,0,.68s-.69.14-1,.14c-1.54,0-3.19.47-4.63-.08-.9-.35-1.29-1.48-1.72-2.35a1.21,1.21,0,0,1,0-1.08c.31-.53.74-1.39,1.35-1.27.78.16.87,1.4,1.54,1.84m15.92,4.43h0c-.16.45-.17,1.7-.46,1.34a3.12,3.12,0,0,1-.34-2.33c0-.23.53-.18.67,0M7.63,50.14h0a2.72,2.72,0,0,1,0,1,1,1,0,0,1-.53.53,2.18,2.18,0,0,1-1.5.34,2.32,2.32,0,0,1-1.33-1.31,3.34,3.34,0,0,1,0-2c.06-.21.43-.25.63-.16M17.36,18.69h0c.09-.46-.11-1.12.28-1.38a1,1,0,0,1,1.34.33c.15.41-.47.77-.83,1m-7.15,9h0c-.22,0-.6.25-.66,0-.11-.44-.12-1.31.34-1.33"/></g></g></svg>