<svg xmlns="http://www.w3.org/2000/svg" viewBox="0 0 74.17 160.09"><g id="Layer_2" data-name="Layer 2"><g id="Layer_1-2" data-name="Layer 1"><path d="M14.47,159.13h0a21.67,21.67,0,0,0,3.12-.29,26.78,26.78,0,0,0,4.68-1.64c.5-.23.73-.85,1.23-1.08s1.21,0,1.72-.28a1.82,1.82,0,0,0,.76-1.12c1-3.5,1.49-7.12,2.51-10.6.83-2.82,2.16-5.46,3.05-8.25s1.39-5.72,2.34-8.5a47.41,47.41,0,0,1,3-7.37,4.12,4.12,0,0,1,2-1.93,2.61,2.61,0,0,1,2.13.4,9.89,9.89,0,0,1,2.3,2.31c.82,1,1.39,2.19,2.22,3.19a15.49,15.49,0,0,0,2.3,2.28c.77.62,1.86.82,2.5,1.55,1.7,2,2.8,4.34,4.41,6.36a26.46,26.46,0,0,0,3.3,3.31c.31.28.84.26,1.12.57,1.1,1.26,1.8,2.84,2.94,4.06a5.7,5.7,0,0,0,2.4,1.69c.38.12.64-.52,1-.62.14,0,.31.13.33.28.1.67.36,1.46,0,2.05-.77,1.3-2.19,2.1-3.14,3.28-.58.72-.81,1.69-1.43,2.38-.87,1-2.34,1.4-3,2.53-.26.44.34,1,.75,1.32a13.6,13.6,0,0,0,3.42,1.79c.19.07.37-.19.51-.33,2.47-2.41,5-4.75,7.31-7.31.66-.73.94-1.73,1.55-2.5s1.78-1.2,2.15-2.15a6.26,6.26,0,0,0-.13-3.06.8.8,0,0,0-.38-.49,19.38,19.38,0,0,1-2.64-1.68c-1-1-1.4-2.37-2.36-3.33-1.44-1.44-3.4-2.32-4.78-3.81-1.16-1.25-1.62-3-2.77-4.3-2.12-2.33-4.78-4.12-7-6.4-.81-.85-1.19-2-2-2.94a22.75,22.75,0,0,0-3.84-3.82c-2.56-1.82-6.38-2.13-8.16-4.73-2.21-3.24-2.17-7.56-2.89-11.42a11.88,11.88,0,0,1,0-4.12c.43-2.52-.06-5.82,1.93-7.4s5-.25,7.44,0c1,.1,1.95.92,3,1,.72,0,1.29-.74,2-.77.39,0,.61.52,1,.64a1.6,1.6,0,0,0,1.08,0,11.7,11.7,0,0,0,2.63-1.58,8.57,8.57,0,0,0,2.06-2.06c.76-1.14,1-2.56,1.75-3.71,1.62-2.54,3.68-4.78,5.29-7.32,1.34-2.13,2.86-4.24,3.54-6.66.17-.61-.76-1.06-1.3-1.37a1.09,1.09,0,0,0-1,0,5.48,5.48,0,0,0-1.76,1.66C63.17,69.09,62,71.65,60.49,74c-2.2,3.35-3.32,8.12-6.94,9.84-4.22,2-9.35.23-14,.13-.48,0-1.28,0-1.35-.45a35.46,35.46,0,0,1,0-9.09c.18-1.63.45-3.48,1.6-4.65,1.41-1.43,3.8-1.43,5.49-2.54a12.7,12.7,0,0,0,3.06-3.06,37.11,37.11,0,0,0,3.22-5.25A13.81,13.81,0,0,0,53,55.23c.91-4.55,1.5-9.16,2-13.77a19.76,19.76,0,0,0,0-5,43.36,43.36,0,0,0-1.73-7c-.52-1.64-2.83-3.25-2-4.76,1-1.87,4-1.5,5.91-2.43a1.25,1.25,0,0,0,.68-.78,4.44,4.44,0,0,0,0-2c-.09-.38-.57-.57-.7-.94a1.57,1.57,0,0,1,0-1.09c.44-1,1.41-1.81,1.72-2.89a5,5,0,0,0,0-3.08C58.7,11,58,11,57.52,11a11.09,11.09,0,0,0-3,0c-.71.12-1.27.73-2,.84-1,.17-2.29.67-3,0-.6-.54.6-1.62.38-2.39a3.52,3.52,0,0,0-1.72-2.35,5.9,5.9,0,0,0-3.69,0c-1,.26-1.89,2.27-2.71,1.61C40.34,7.56,40.72,5.2,40,3.5a.62.62,0,0,0-.49-.38,7.29,7.29,0,0,0-3,0c-.75.24-1.06,1.9-1.76,1.56-1.69-.82-2.34-3-3.73-4.21A2.25,2.25,0,0,0,29.52,0,2.84,2.84,0,0,0,28,.47a3.65,3.65,0,0,0-1.25,1.25c-.89,1.63-.91,3.81-2.24,5.1-.73.71-2.05.17-3.05,0-.71-.12-1.27-.74-2-.84a6.68,6.68,0,0,0-3,.14,2.69,2.69,0,0,0-1.32,1.32,1.17,1.17,0,0,0,0,1.06c.41.75,1.21,1.24,1.65,2,.07.13-.14.32-.28.34a11.54,11.54,0,0,1-3.05,0c-.4-.06-.62-.79-1-.67a4.53,4.53,0,0,0-2.34,1.69c-.23.32.11.81.36,1.11A34.21,34.21,0,0,0,14,16.47c1.21,1.07,2.93,1.64,3.8,3,.3.46-.8.79-1.05,1.28-1,2.07-1.66,4.35-2.82,6.37-.42.72-1.74.88-1.82,1.7A91.57,91.57,0,0,0,12,45.46a13.58,13.58,0,0,0,1.74,4.74c1.5,3.06,3.24,6,5,9a20.07,20.07,0,0,0,2,3A27,27,0,0,0,24.55,66a11.6,11.6,0,0,0,3.66,2c2.79.85,6.21,0,8.57,1.71,1,.73-.64,2.51-1.47,3.44s-2.32.91-3.17,1.78c-.26.27.15.78.41,1,.69.73,2,.93,2.37,1.86a5.67,5.67,0,0,1,0,3.66c-.18.61-.76,1.34-1.39,1.3-2.4-.14-4.61-1.37-7-1.82a4.6,4.6,0,0,0-2,.14c-.4.1-.61.73-1,.69A80.28,80.28,0,0,1,14.17,80a3.43,3.43,0,0,1-1.3-.67,8,8,0,0,1-2.14-2.13C8,72.14,6,66.76,3.27,61.75c-.37-.69-1-1.5-1.75-1.58-.61-.06-1,.75-1.35,1.27a2,2,0,0,0-.13,1,5.39,5.39,0,0,0,.12,2c.5,1.18,1.5,2.09,2.11,3.22s.93,2.34,1.51,3.46C5,73.49,6.16,75.77,7.55,77.94c1,1.54,1.72,3.49,3.33,4.35,2.91,1.56,6.33,2,9.58,2.55a18.24,18.24,0,0,0,5.06.11c.73-.07,1.32-.9,2-.82C30.1,84.42,33.4,84,35,86s.24,5,0,7.44c-.09,1-1,2-1,3,.23,3,1.43,5.92,1.84,8.94.22,1.55.73,3.29,0,4.69-.82,1.67-2.92,2.32-4.18,3.68a11.32,11.32,0,0,0-2,3c-2,4.4-3.48,9-5.39,13.43-1,2.44-2.49,4.69-3.45,7.16a27.78,27.78,0,0,0-1.7,6.05c-.06.42.75.66.66,1.07-.28,1.39-1.36,2.53-1.69,3.91a8,8,0,0,0,0,3.09c.06.38.86.64.65,1a4.49,4.49,0,0,1-2.22,1.61,35.71,35.71,0,0,1-6,1.76,5.08,5.08,0,0,1-2.09,0c-.38-.08-.6-.75-1-.65a2.29,2.29,0,0,0-1.34,1.27,1.78,1.78,0,0,0,0,1.66,4.36,4.36,0,0,0,2.34,1.73,10.22,10.22,0,0,0,4,.12m8.33-7.49h0c-.22,0-.6.25-.66,0-.11-.44-.12-1.31.33-1.33m6.67-16.69h0c.23,0,.64-.26.67,0,.12.78.45,2.29-.34,2.33m-6.31,13.74h0c.1-.45-.15-1.33.31-1.34s.44.88.33,1.32m7-18h0c-.22,0-.6.25-.66,0-.11-.44-.12-1.31.33-1.33m2.74-65.48h0A20.68,20.68,0,0,1,27.56,64c-1.36-1-2.3-2.43-3.55-3.53-.32-.28-.83-.27-1.12-.57-.67-.72-1.56-1.44-1.69-2.41-.06-.47.86-.54,1.32-.49.71.07,1.27.72,2,.82a9.68,9.68,0,0,0,4.08,0,33.21,33.21,0,0,0,7.63-3.58,9.46,9.46,0,0,0,2.66-2.76,1.15,1.15,0,0,0,0-1.08,5.89,5.89,0,0,0-1.72-2.35,1.81,1.81,0,0,0-1.66,0,3,3,0,0,0-1.33,1.32c-.26.5.16,1.28-.25,1.67a10,10,0,0,1-4.34,2.72,13.6,13.6,0,0,1-7.08,0,10.36,10.36,0,0,1-4.76-3.66,14.37,14.37,0,0,1-2.58-5.64A19.77,19.77,0,0,1,15,38.47c.06-.71.78-1.28.78-2s-.87-1.29-.77-2a17.83,17.83,0,0,1,1.73-4.73C18.07,26.93,19,23.8,21,21.47c.51-.57,1.12,1.12,1.84,1.39a2.17,2.17,0,0,0,1.68,0,5.68,5.68,0,0,0,1.76-1.66c1.29-1.63,1.9-3.88,3.58-5.09,1-.7,2.48-.46,3.63-.09a46.39,46.39,0,0,1,10.69,4.7c1.45.93,2.25,2.62,3.11,4.11a25.91,25.91,0,0,1,2,4.67,34,34,0,0,1,1.61,5.95A25.6,25.6,0,0,1,51,41.47c-.1,1-.92,2-.95,3,0,.73.91,1.32.8,2a50.09,50.09,0,0,1-2.48,9.61,32,32,0,0,1-3.07,6A5.84,5.84,0,0,1,43.49,64a10.18,10.18,0,0,1-3.91,1.84M27.82,37.66h0A12.48,12.48,0,0,0,30.5,36a1.57,1.57,0,0,0,.38-1.57A10.54,10.54,0,0,0,28,30.47a2.79,2.79,0,0,0-2.51-.34c-.45.15-.44.87-.46,1.34a18.8,18.8,0,0,0,.13,5,2.21,2.21,0,0,0,1.33,1.31m22.68-16.3h0A6.83,6.83,0,0,0,48.53,20a10.81,10.81,0,0,0-2.32-2.31,23.15,23.15,0,0,0-4-2,31.92,31.92,0,0,0-6.67-2.54,20.46,20.46,0,0,0-7.11,0c-1.11.18-1.83,1.4-2.92,1.68-.38.1-.62-.54-1-.66a1.24,1.24,0,0,0-1.05,0c-1.11.72-1.8,2-3,2.64-.35.18-.62-.6-1-.6s-.65.77-1,.62a7.08,7.08,0,0,1-3.27-2.33c-.27-.37.84-.51,1.29-.46,1.05.12,2,.95,3,.94a3,3,0,0,0,2-1,1.58,1.58,0,0,0,.34-1.51c-.31-.8-1.36-1.15-1.69-1.94a1.26,1.26,0,0,1,.31-1.36c.35-.27.89,0,1.31.11a25.53,25.53,0,0,1,3.45,1.47c.61.31,1.35,1.77,1.71,1.17,1.55-2.59,1.61-5.83,2.75-8.63.1-.23.47.26.56.49.95,2.45,1.54,5,2.53,7.46a.87.87,0,0,0,.72.56,1,1,0,0,0,.75-.58c.61-1.09.83-2.39,1.5-3.45A5.13,5.13,0,0,1,37.5,6.13a.93.93,0,0,1,1,0,1.62,1.62,0,0,1,.32,1.36c-.11.7-.77,1.26-.83,2s-.2,1.9.46,2.34c.85.57,2.09.3,3.08,0s1.83-1.36,2.89-1.72a3,3,0,0,1,2.08,0c.25.1.11.58,0,.82-.34.57-1.17.84-1.35,1.49s-.39,2,.33,2.37c1.51.71,3.35.31,5,.14.71-.07,1.27-.72,2-.83a7.13,7.13,0,0,1,3,0c.26.07.16.62,0,.82-.75.82-1.84,1.3-2.63,2.09a11.83,11.83,0,0,0-2.37,3c-.26.54.43,1.35,0,1.8"/></g></g></svg>